<svg xmlns="http://www.w3.org/2000/svg" width="33.424" height="33.424" viewBox="0 0 33.424 33.424">
  <path id="Icon_metro-facebook" data-name="Icon metro-facebook" d="M30.425,1.928H8.141A5.571,5.571,0,0,0,2.571,7.5V29.781a5.571,5.571,0,0,0,5.57,5.571H19.283V20.729H15.1V16.551h4.178V13.418A5.222,5.222,0,0,1,24.505,8.2h5.223v4.178H24.505a1.045,1.045,0,0,0-1.045,1.045v3.134h5.745l-1.045,4.178h-4.7V35.352h6.964a5.571,5.571,0,0,0,5.57-5.571V7.5a5.571,5.571,0,0,0-5.57-5.571Z" transform="translate(-2.571 -1.928)"/>
</svg>
