<svg width="19" height="25" viewBox="0 0 19 25" fill="none" xmlns="http://www.w3.org/2000/svg">
<path d="M11.8745 22.0807C12.9811 20.4708 14.4909 18.1669 15.728 15.8843C16.3463 14.7434 16.9062 13.5903 17.3138 12.52C17.7143 11.4682 18 10.4152 18 9.5C18 4.80558 14.1944 1 9.5 1C4.80558 1 1 4.80558 1 9.5C1 10.4152 1.2857 11.4682 1.68624 12.52C2.09383 13.5903 2.65369 14.7434 3.27201 15.8843C4.5091 18.1669 6.01888 20.4708 7.12551 22.0807C8.2806 23.7611 10.7194 23.7611 11.8745 22.0807Z" fill="white" stroke="black" stroke-width="2"/>
<circle cx="9.50003" cy="9.23214" r="2.48214" fill="white" stroke="black" stroke-width="2"/>
</svg>
