<svg width="22" height="22" viewBox="0 0 22 22" fill="none" xmlns="http://www.w3.org/2000/svg">
<path d="M0.277627 7.85996C1.60663 13.14 8.86363 20.402 14.1426 21.725C14.8553 21.9056 15.5875 21.9976 16.3226 21.999C17.7197 21.9983 19.0952 21.6549 20.3286 20.999C20.7608 20.7732 21.1338 20.4491 21.4176 20.0526C21.7015 19.6561 21.8881 19.1985 21.9624 18.7166C22.0368 18.2348 21.9968 17.7422 21.8457 17.2786C21.6946 16.815 21.4366 16.3935 21.0926 16.048L19.0066 13.962C18.5645 13.5199 17.9994 13.2214 17.385 13.1053C16.7707 12.9892 16.1356 13.0608 15.5626 13.311C15.016 13.547 14.5173 13.8816 14.0916 14.298C13.9136 14.475 13.5856 14.503 13.1146 14.375C11.8798 13.8731 10.7581 13.1291 9.81551 12.1867C8.87294 11.2443 8.12868 10.1227 7.62663 8.88796C7.50063 8.41696 7.52663 8.08796 7.70463 7.91096C8.12146 7.48466 8.45636 6.98536 8.69263 6.43796C8.94217 5.86518 9.01353 5.23056 8.89742 4.61666C8.78131 4.00277 8.48311 3.43804 8.04163 2.99596L5.95563 0.910961C5.61407 0.565218 5.19519 0.305653 4.73356 0.153688C4.27192 0.00172241 3.78077 -0.0382871 3.30063 0.036961C2.81504 0.108272 2.35333 0.293858 1.95347 0.578452C1.55361 0.863046 1.22704 1.23851 1.00063 1.67396C-0.00667191 3.57262 -0.264685 5.78019 0.277627 7.85996ZM2.77363 2.60196C2.85525 2.44571 2.97277 2.31103 3.11653 2.209C3.26029 2.10696 3.42619 2.04046 3.60063 2.01496C3.65586 2.00616 3.7117 2.00181 3.76763 2.00196C3.91159 2.00191 4.05414 2.03044 4.187 2.08588C4.31986 2.14133 4.4404 2.22259 4.54163 2.32496L6.62663 4.40996C6.78343 4.56492 6.89005 4.76342 6.93266 4.97971C6.97528 5.196 6.95192 5.4201 6.86563 5.62296C6.72906 5.94852 6.5342 6.2464 6.29063 6.50196C5.93294 6.88303 5.68833 7.3561 5.58413 7.86824C5.47994 8.38039 5.52027 8.91143 5.70063 9.40196C6.42263 12.102 9.90563 15.581 12.6006 16.302C13.0931 16.482 13.6259 16.5212 14.1394 16.4152C14.6529 16.3092 15.1267 16.0622 15.5076 15.702C15.7617 15.4586 16.0578 15.2635 16.3816 15.126C16.5846 15.0394 16.8089 15.016 17.0254 15.0586C17.2419 15.1012 17.4406 15.208 17.5956 15.365L19.6806 17.45C19.8032 17.5712 19.8952 17.7199 19.9491 17.8836C20.003 18.0474 20.0172 18.2216 19.9906 18.392C19.9646 18.5666 19.8975 18.7326 19.7947 18.8762C19.692 19.0198 19.5566 19.137 19.3996 19.218C17.9395 20.0027 16.2352 20.2015 14.6336 19.774C10.0896 18.643 3.36063 11.914 2.21663 7.37196C1.78965 5.76893 1.9888 4.06349 2.77363 2.60196Z" fill="#8A8A8A"/>
</svg>
