<svg xmlns="http://www.w3.org/2000/svg" width="33.424" height="33.424" viewBox="0 0 33.424 33.424">
  <path id="Icon_metro-linkedin" data-name="Icon metro-linkedin" d="M30.381,1.928H8.185A5.631,5.631,0,0,0,2.571,7.542v22.2a5.631,5.631,0,0,0,5.614,5.614h22.2a5.631,5.631,0,0,0,5.614-5.614V7.542a5.631,5.631,0,0,0-5.614-5.614ZM15.1,29.085H10.927V14.462H15.1V29.085ZM13.016,12.373A2.089,2.089,0,1,1,15.1,10.284,2.089,2.089,0,0,1,13.016,12.373ZM29.728,29.085H25.55V20.729a2.089,2.089,0,0,0-4.178,0v8.356H17.194V14.462h4.178v2.594c.862-1.184,2.179-2.594,3.656-2.594a4.982,4.982,0,0,1,4.7,5.223v9.4Z" transform="translate(-2.571 -1.928)"/>
</svg>
