<svg xmlns="http://www.w3.org/2000/svg" width="27.366" height="31.5" viewBox="0 0 27.366 31.5">
  <path id="Icon_simple-tiktok" data-name="Icon simple-tiktok" d="M16.742.026C18.461,0,20.167.013,21.873,0a8.175,8.175,0,0,0,2.3,5.473,9.256,9.256,0,0,0,5.565,2.349v5.289a14.048,14.048,0,0,1-5.512-1.273A16.216,16.216,0,0,1,22.1,10.618c-.013,3.832.013,7.665-.026,11.484A10.025,10.025,0,0,1,20.3,27.273a9.778,9.778,0,0,1-7.757,4.213,9.57,9.57,0,0,1-5.355-1.352A9.9,9.9,0,0,1,2.4,22.64c-.026-.656-.039-1.312-.013-1.956a9.881,9.881,0,0,1,11.458-8.767c.026,1.942-.052,3.885-.052,5.827A4.5,4.5,0,0,0,8.04,20.527a5.207,5.207,0,0,0-.184,2.113,4.467,4.467,0,0,0,4.594,3.767,4.409,4.409,0,0,0,3.636-2.113,3.028,3.028,0,0,0,.538-1.391c.131-2.349.079-4.686.092-7.035C16.728,10.579,16.7,5.3,16.742.026Z" transform="translate(-2.369)"/>
</svg>
